<?xml version="1.0" encoding="UTF-8"?><svg id="uuid-c93f816f-bffe-469c-ade7-f05dd1985d2b" xmlns="http://www.w3.org/2000/svg" viewBox="0 0 340.89 377.9"><defs><radialGradient id="uuid-481354c2-9042-407a-ba84-66be5816dcb8" cx="205.33" cy="87.8" fx="205.33" fy="87.8" r="372.77" gradientUnits="userSpaceOnUse"><stop offset="0" stop-color="#64b858"/><stop offset=".1" stop-color="#5dae52"/><stop offset=".43" stop-color="#4a9745"/><stop offset=".74" stop-color="#3f883d"/><stop offset="1" stop-color="#3c843b"/></radialGradient><radialGradient id="uuid-4eeb77f2-6789-4e93-9d65-5a5bab0421c0" cx="368.75" cy="178.17" fx="345.45" fy="396.11" r="370.08" gradientUnits="userSpaceOnUse"><stop offset=".09" stop-color="#00a1ff"/><stop offset="1" stop-color="#0085d1"/></radialGradient><filter id="uuid-88c083eb-946a-40d2-9c2d-62c588e05ebe" filterUnits="userSpaceOnUse"><feOffset dx="0" dy="0"/><feGaussianBlur result="uuid-63bdbe20-0c50-4b45-adc4-76f4ac51483a" stdDeviation="5"/><feFlood flood-color="#000" flood-opacity=".46"/><feComposite in2="uuid-63bdbe20-0c50-4b45-adc4-76f4ac51483a" operator="in"/><feComposite in="SourceGraphic"/></filter><radialGradient id="uuid-389f89ef-dc90-403c-a032-92dc11fddd2f" cx="207.21" cy="76.4" fx="465.03" fy="-82.42" r="302.81" gradientUnits="userSpaceOnUse"><stop offset="0" stop-color="#fff"/><stop offset=".06" stop-color="#e8ebec"/><stop offset=".21" stop-color="#abb4b9"/><stop offset=".36" stop-color="#77858d"/><stop offset=".5" stop-color="#4c5f69"/><stop offset=".64" stop-color="#2b414e"/><stop offset=".77" stop-color="#132c3a"/><stop offset=".9" stop-color="#041f2e"/><stop offset="1" stop-color="#001b2a"/></radialGradient><filter id="uuid-97563093-a146-4410-b700-222e88f8c644" filterUnits="userSpaceOnUse"><feOffset dx="0" dy="0"/><feGaussianBlur result="uuid-113942d8-b50b-4cee-8ed1-555ca449e1e0" stdDeviation="5"/><feFlood flood-color="#000" flood-opacity=".46"/><feComposite in2="uuid-113942d8-b50b-4cee-8ed1-555ca449e1e0" operator="in"/><feComposite in="SourceGraphic"/></filter></defs><path d="M145.04,6.81L25.41,75.87C9.69,84.95,0,101.73,0,119.89v138.13c0,18.16,9.69,34.93,25.41,44.01l119.62,69.07c15.72,9.08,35.1,9.08,50.82,0l119.62-69.07c15.72-9.08,25.41-25.86,25.41-44.01V119.89c0-18.16-9.69-34.93-25.41-44.01L195.86,6.81c-15.72-9.08-35.1-9.08-50.82,0Z" style="fill:url(#uuid-481354c2-9042-407a-ba84-66be5816dcb8);"/><path d="M145.04,40.56l-90.39,52.19c-15.72,9.08-25.41,25.86-25.41,44.01v104.37c0,18.16,9.69,34.93,25.41,44.01l90.39,52.19c15.72,9.08,35.1,9.08,50.82,0l90.39-52.19c15.72-9.08,25.41-25.86,25.41-44.01v-104.37c0-18.16-9.69-34.93-25.41-44.01l-90.39-52.19c-15.72-9.08-35.1-9.08-50.82,0Z" style="fill:url(#uuid-4eeb77f2-6789-4e93-9d65-5a5bab0421c0); filter:url(#uuid-88c083eb-946a-40d2-9c2d-62c588e05ebe);"/><path d="M155.51,192.17v103.83h-24.32v-103.83h-28.06v-20.95h80.44v20.95h-28.06Z" style="fill:#fff;"/><path d="M255.03,199.65c-7.3-9.73-15.9-10.66-20.39-10.66-13.09,0-17.21,8.23-17.21,14.59,0,2.99.94,5.8,3.93,8.42,2.99,2.81,7.11,4.3,14.97,7.11,9.73,3.37,18.89,6.73,25.25,12.53,5.61,5.05,10.66,13.47,10.66,26.19,0,24.32-17.58,40.97-43.4,40.97-23.01,0-36.48-14.03-43.03-23.57l15.9-15.15c5.99,12.16,17.4,16.65,26.19,16.65,11.04,0,19.27-6.73,19.27-17.21,0-4.49-1.5-8.04-4.86-11.22-4.68-4.3-12.16-6.73-19.27-9.17-6.55-2.25-14.4-5.24-20.76-10.85-4.12-3.55-9.92-10.48-9.92-23.2,0-18.33,12.35-36.67,40.03-36.67,7.86,0,22.64,1.5,35.36,14.59l-12.72,16.65Z" style="fill:#fff;"/><path d="M154.24,66.18l-82.01,47.35c-10.03,5.79-16.21,16.49-16.21,28.08v94.7c0,11.58,6.18,22.29,16.21,28.08l82.01,47.35c10.03,5.79,22.39,5.79,32.42,0l82.01-47.35c10.03-5.79,16.21-16.49,16.21-28.08v-94.7c0-11.58-6.18-22.29-16.21-28.08l-82.01-47.35c-10.03-5.79-22.39-5.79-32.42,0Z" style="fill:url(#uuid-389f89ef-dc90-403c-a032-92dc11fddd2f); filter:url(#uuid-97563093-a146-4410-b700-222e88f8c644); opacity:.93;"/><path d="M242.23,242.62c-2.42,5.96-11.54,25.13-39.66,25.13-13.03,0-22.9-3.72-30.91-11.36-8.94-8.38-12.66-18.8-12.66-31.47,0-16.01,6.52-25.88,12.29-31.65,9.5-9.31,20.67-11.36,30.35-11.36,16.38,0,25.88,6.52,31.47,13.22,8.56,10.24,9.68,22.9,9.68,31.65v1.86h-60.32c0,4.84,1.3,10.05,3.91,13.59,2.42,3.35,7.45,7.63,16.2,7.63s15.08-4.1,18.8-10.61l20.85,3.35ZM221.38,214.14c-1.86-10.99-10.8-16.2-19.18-16.2s-17.13,5.4-18.99,16.2h38.17Z" style="fill:#fff;"/></svg>
